<svg xmlns="http://www.w3.org/2000/svg" width="453" height="52" viewBox="0 0 453 52" fill="none">
  <path d="M15.8 51.6016C12.4876 51.6016 9.71239 51.0757 7.4743 50.0238C5.2362 48.9719 3.54644 47.3828 2.40501 45.2566C1.26359 43.1081 0.692871 40.4335 0.692871 37.2331C0.692871 36.7183 0.692871 36.3043 0.692871 35.9909C0.692871 35.6552 0.692871 35.23 0.692871 34.7152H3.31144C3.31144 35.23 3.31144 35.644 3.31144 35.9574C3.31144 36.2707 3.31144 36.6847 3.31144 37.1995C3.31144 41.3624 4.37454 44.4174 6.50073 46.3645C8.62692 48.2893 11.6819 49.2516 15.6657 49.2516C19.851 49.2516 22.9843 48.4012 25.0657 46.7002C27.1695 44.9769 28.2214 42.4814 28.2214 39.2138C28.2214 36.9309 27.6955 35.0621 26.6436 33.6074C25.6141 32.1302 24.1593 30.8881 22.2793 29.8809C20.4217 28.8738 18.2172 27.945 15.6657 27.0945C12.7562 26.1321 10.2048 25.0354 8.01144 23.8045C5.81811 22.5512 4.11716 21.0404 2.90859 19.2724C1.70001 17.4819 1.09573 15.255 1.09573 12.5916C1.09573 10.0626 1.66644 7.9364 2.80787 6.21306C3.97168 4.48973 5.61668 3.19164 7.74287 2.31878C9.89144 1.42354 12.4429 0.975922 15.3972 0.975922C18.5529 0.975922 21.2498 1.4683 23.4879 2.45306C25.726 3.41544 27.4381 4.90378 28.6243 6.91806C29.8329 8.90997 30.4372 11.4502 30.4372 14.5388C30.4372 15.1207 30.4372 15.6019 30.4372 15.9824C30.4372 16.3404 30.4372 16.8104 30.4372 17.3924H27.8186C27.8186 16.8328 27.8186 16.374 27.8186 16.0159C27.8186 15.6354 27.8186 15.1654 27.8186 14.6059C27.8186 10.6221 26.7331 7.74616 24.5622 5.97807C22.4136 4.20997 19.381 3.32592 15.4643 3.32592C11.7267 3.32592 8.82835 4.09807 6.7693 5.64235C4.71025 7.18664 3.68073 9.50307 3.68073 12.5916C3.68073 14.8969 4.25144 16.8104 5.39287 18.3323C6.55668 19.8319 8.14573 21.0964 10.16 22.1259C12.1743 23.1331 14.4683 24.0731 17.0422 24.9459C19.9517 25.9083 22.4248 26.9826 24.4614 28.1688C26.5205 29.355 28.0872 30.8097 29.1614 32.5331C30.2581 34.2564 30.8064 36.4497 30.8064 39.1131C30.8064 41.7316 30.2245 43.9697 29.0607 45.8273C27.9193 47.685 26.2295 49.1174 23.9914 50.1245C21.7757 51.1093 19.0453 51.6016 15.8 51.6016Z" fill="white"/>
  <path d="M40.7499 50.9974V1.4795H43.3013V50.9974H40.7499Z" fill="white"/>
  <path d="M68.3209 51.6016C65.0086 51.6016 62.2333 51.0757 59.9952 50.0238C57.7571 48.9719 56.0674 47.3828 54.9259 45.2566C53.7845 43.1081 53.2138 40.4335 53.2138 37.2331C53.2138 36.7183 53.2138 36.3043 53.2138 35.9909C53.2138 35.6552 53.2138 35.23 53.2138 34.7152H55.8324C55.8324 35.23 55.8324 35.644 55.8324 35.9574C55.8324 36.2707 55.8324 36.6847 55.8324 37.1995C55.8324 41.3624 56.8955 44.4174 59.0216 46.3645C61.1478 48.2893 64.2028 49.2516 68.1867 49.2516C72.3719 49.2516 75.5052 48.4012 77.5866 46.7002C79.6905 44.9769 80.7424 42.4814 80.7424 39.2138C80.7424 36.9309 80.2164 35.0621 79.1645 33.6074C78.135 32.1302 76.6802 30.8881 74.8002 29.8809C72.9426 28.8738 70.7381 27.945 68.1867 27.0945C65.2771 26.1321 62.7257 25.0354 60.5324 23.8045C58.339 22.5512 56.6381 21.0404 55.4295 19.2724C54.2209 17.4819 53.6166 15.255 53.6166 12.5916C53.6166 10.0626 54.1874 7.9364 55.3288 6.21306C56.4926 4.48973 58.1376 3.19164 60.2638 2.31878C62.4124 1.42354 64.9638 0.975922 67.9181 0.975922C71.0738 0.975922 73.7707 1.4683 76.0088 2.45306C78.2469 3.41544 79.959 4.90378 81.1452 6.91806C82.3538 8.90997 82.9581 11.4502 82.9581 14.5388C82.9581 15.1207 82.9581 15.6019 82.9581 15.9824C82.9581 16.3404 82.9581 16.8104 82.9581 17.3924H80.3395C80.3395 16.8328 80.3395 16.374 80.3395 16.0159C80.3395 15.6354 80.3395 15.1654 80.3395 14.6059C80.3395 10.6221 79.254 7.74616 77.0831 5.97807C74.9345 4.20997 71.9019 3.32592 67.9852 3.32592C64.2476 3.32592 61.3493 4.09807 59.2902 5.64235C57.2312 7.18664 56.2016 9.50307 56.2016 12.5916C56.2016 14.8969 56.7724 16.8104 57.9138 18.3323C59.0776 19.8319 60.6666 21.0964 62.6809 22.1259C64.6952 23.1331 66.9893 24.0731 69.5631 24.9459C72.4726 25.9083 74.9457 26.9826 76.9824 28.1688C79.0414 29.355 80.6081 30.8097 81.6824 32.5331C82.779 34.2564 83.3274 36.4497 83.3274 39.1131C83.3274 41.7316 82.7455 43.9697 81.5816 45.8273C80.4402 47.685 78.7505 49.1174 76.5124 50.1245C74.2966 51.1093 71.5662 51.6016 68.3209 51.6016Z" fill="white"/>
  <path d="M120.128 3.79593H105.827L106.599 2.38592V50.9974H103.98V2.38592L104.853 3.79593H90.4844V1.4795H120.128V3.79593Z" fill="white"/>
  <path d="M130.464 3.79593L131.639 2.38592V25.9866L130.834 25.0131H151.681V27.2959H130.834L131.639 26.3224V50.0909L130.464 48.6809H154.065V50.9974H129.054V1.4795H154.065V3.79593H130.464Z" fill="white"/>
  <path d="M199.731 1.4795H204.095V50.9974H201.611V3.56092L201.779 3.59449L186.84 50.9974H182.912L168.006 3.59449L168.174 3.56092V50.9974H165.69V1.4795H170.054L184.96 49.1845H184.758L199.731 1.4795Z" fill="white"/>
  <path d="M212.968 50.9974L227.437 1.27807H231.331L245.7 50.9974H242.98L229.35 3.25878H229.418L215.687 50.9974H212.968ZM218.809 36.5281V34.2116H239.959V36.5281H218.809Z" fill="white"/>
  <path d="M284.765 51.6016C281.452 51.6016 278.677 51.0757 276.439 50.0238C274.201 48.9719 272.511 47.3828 271.37 45.2566C270.228 43.1081 269.658 40.4335 269.658 37.2331C269.658 36.7183 269.658 36.3043 269.658 35.9909C269.658 35.6552 269.658 35.23 269.658 34.7152H272.276C272.276 35.23 272.276 35.644 272.276 35.9574C272.276 36.2707 272.276 36.6847 272.276 37.1995C272.276 41.3624 273.339 44.4174 275.466 46.3645C277.592 48.2893 280.647 49.2516 284.631 49.2516C288.816 49.2516 291.949 48.4012 294.031 46.7002C296.134 44.9769 297.186 42.4814 297.186 39.2138C297.186 36.9309 296.66 35.0621 295.608 33.6074C294.579 32.1302 293.124 30.8881 291.244 29.8809C289.387 28.8738 287.182 27.945 284.631 27.0945C281.721 26.1321 279.17 25.0354 276.976 23.8045C274.783 22.5512 273.082 21.0404 271.873 19.2724C270.665 17.4819 270.061 15.255 270.061 12.5916C270.061 10.0626 270.631 7.9364 271.773 6.21306C272.936 4.48973 274.581 3.19164 276.708 2.31878C278.856 1.42354 281.408 0.975922 284.362 0.975922C287.518 0.975922 290.215 1.4683 292.453 2.45306C294.691 3.41544 296.403 4.90378 297.589 6.91806C298.798 8.90997 299.402 11.4502 299.402 14.5388C299.402 15.1207 299.402 15.6019 299.402 15.9824C299.402 16.3404 299.402 16.8104 299.402 17.3924H296.783C296.783 16.8328 296.783 16.374 296.783 16.0159C296.783 15.6354 296.783 15.1654 296.783 14.6059C296.783 10.6221 295.698 7.74616 293.527 5.97807C291.378 4.20997 288.346 3.32592 284.429 3.32592C280.691 3.32592 277.793 4.09807 275.734 5.64235C273.675 7.18664 272.646 9.50307 272.646 12.5916C272.646 14.8969 273.216 16.8104 274.358 18.3323C275.521 19.8319 277.111 21.0964 279.125 22.1259C281.139 23.1331 283.433 24.0731 286.007 24.9459C288.916 25.9083 291.39 26.9826 293.426 28.1688C295.485 29.355 297.052 30.8097 298.126 32.5331C299.223 34.2564 299.771 36.4497 299.771 39.1131C299.771 41.7316 299.189 43.9697 298.026 45.8273C296.884 47.685 295.194 49.1174 292.956 50.1245C290.741 51.1093 288.01 51.6016 284.765 51.6016Z" fill="white"/>
  <path d="M326.064 51.6016C323.311 51.6016 320.782 51.0309 318.477 49.8895C316.172 48.7257 314.168 47.0471 312.468 44.8538C310.789 42.6381 309.48 39.9635 308.54 36.8302C307.622 33.6969 307.163 30.1495 307.163 26.1881C307.163 22.2266 307.633 18.6904 308.573 15.5795C309.513 12.4462 310.834 9.80521 312.535 7.65664C314.236 5.48569 316.228 3.8295 318.51 2.68807C320.816 1.54664 323.333 0.975922 326.064 0.975922C328.794 0.975922 331.312 1.54664 333.618 2.68807C335.923 3.8295 337.926 5.48569 339.627 7.65664C341.328 9.80521 342.637 12.4462 343.555 15.5795C344.495 18.6904 344.965 22.2266 344.965 26.1881C344.965 30.1495 344.495 33.6969 343.555 36.8302C342.637 39.9635 341.328 42.6381 339.627 44.8538C337.948 47.0471 335.956 48.7257 333.651 49.8895C331.346 51.0309 328.817 51.6016 326.064 51.6016ZM326.064 49.2516C329.242 49.2516 332.051 48.334 334.49 46.4988C336.952 44.6412 338.866 41.989 340.231 38.5424C341.619 35.0733 342.313 30.9552 342.313 26.1881C342.313 21.3985 341.608 17.3028 340.198 13.9009C338.81 10.4766 336.896 7.86926 334.457 6.07878C332.017 4.26592 329.22 3.3595 326.064 3.3595C322.931 3.3595 320.133 4.26592 317.671 6.07878C315.232 7.86926 313.307 10.4766 311.897 13.9009C310.509 17.3028 309.815 21.3985 309.815 26.1881C309.815 30.9776 310.509 35.0957 311.897 38.5424C313.307 41.989 315.232 44.6412 317.671 46.4988C320.133 48.334 322.931 49.2516 326.064 49.2516Z" fill="white"/>
  <path d="M354.153 50.9974V1.4795H356.738V50.0909L355.563 48.6809H377.015V50.9974H354.153Z" fill="white"/>
  <path d="M383.382 50.9974L397.851 1.27807H401.746L416.114 50.9974H413.395L399.765 3.25878H399.832L386.101 50.9974H383.382ZM389.223 36.5281V34.2116H410.373V36.5281H389.223Z" fill="white"/>
  <path d="M424.378 50.9974V1.4795H439.653C443.771 1.4795 446.949 2.48664 449.187 4.50092C451.425 6.49283 452.544 9.69331 452.544 14.1024C452.544 16.7881 452.03 19.0709 451 20.9509C449.993 22.8309 448.796 24.2857 447.408 25.3152C446.02 26.3223 444.778 26.9043 443.681 27.0609C444.778 27.1504 445.897 27.475 447.039 28.0345C448.202 28.5716 449.176 29.4109 449.959 30.5524C450.743 31.6714 451.134 33.1821 451.134 35.0845C451.134 37.0988 451.134 39.1914 451.134 41.3624C451.134 43.5109 451.134 45.5924 451.134 47.6066C451.134 48.4795 451.213 49.2293 451.369 49.8559C451.526 50.4602 451.66 50.8407 451.772 50.9974H449.12C449.031 50.8183 448.907 50.4378 448.751 49.8559C448.616 49.2516 448.549 48.5019 448.549 47.6066C448.549 45.6595 448.549 43.634 448.549 41.5302C448.549 39.4264 448.549 37.4009 448.549 35.4538C448.549 32.9471 447.732 31.1231 446.099 29.9816C444.465 28.8402 442.283 28.2695 439.552 28.2695H426.056L426.896 27.2288V50.9974H424.378ZM426.896 27.0945L426.056 25.9866H439.552C441.41 25.9866 443.122 25.5054 444.689 24.5431C446.255 23.5807 447.509 22.2266 448.449 20.4809C449.411 18.7352 449.892 16.6538 449.892 14.2366C449.892 10.5214 448.963 7.85807 447.106 6.24664C445.271 4.61283 442.585 3.79593 439.049 3.79593H426.023L426.896 2.6545V27.0945Z" fill="white"/>
</svg>